<mxfile host="app.diagrams.net" modified="2021-04-05T08:59:49.642Z" agent="5.0 (Windows NT 6.1; Win64; x64) AppleWebKit/537.36 (KHTML, like Gecko) Chrome/89.0.4389.114 Safari/537.36" etag="L3V6MfT1HPAM6RQl47IO" version="14.5.7" type="github">
  <diagram id="ODR3X1t5x1EfNsRjI4Ut" name="Page-1">
    <mxGraphModel dx="1019" dy="555" grid="1" gridSize="10" guides="1" tooltips="1" connect="1" arrows="1" fold="1" page="1" pageScale="1" pageWidth="827" pageHeight="1169" math="0" shadow="0">
      <root>
        <mxCell id="0" />
        <mxCell id="1" parent="0" />
        <mxCell id="uKTWcdBBId3GiLFlyGbz-2" value="" style="rounded=0;whiteSpace=wrap;html=1;" vertex="1" parent="1">
          <mxGeometry x="80" y="40" width="120" height="60" as="geometry" />
        </mxCell>
        <mxCell id="uKTWcdBBId3GiLFlyGbz-3" value="" style="rhombus;whiteSpace=wrap;html=1;" vertex="1" parent="1">
          <mxGeometry x="350" y="20" width="160" height="100" as="geometry" />
        </mxCell>
        <mxCell id="uKTWcdBBId3GiLFlyGbz-4" value="" style="rounded=0;whiteSpace=wrap;html=1;" vertex="1" parent="1">
          <mxGeometry x="640" y="40" width="120" height="60" as="geometry" />
        </mxCell>
        <mxCell id="uKTWcdBBId3GiLFlyGbz-5" value="" style="rhombus;whiteSpace=wrap;html=1;" vertex="1" parent="1">
          <mxGeometry x="60" y="200" width="160" height="100" as="geometry" />
        </mxCell>
        <mxCell id="uKTWcdBBId3GiLFlyGbz-6" value="" style="rhombus;whiteSpace=wrap;html=1;" vertex="1" parent="1">
          <mxGeometry x="620" y="350" width="160" height="100" as="geometry" />
        </mxCell>
        <mxCell id="uKTWcdBBId3GiLFlyGbz-7" value="" style="rounded=0;whiteSpace=wrap;html=1;" vertex="1" parent="1">
          <mxGeometry x="80" y="380" width="120" height="60" as="geometry" />
        </mxCell>
        <mxCell id="uKTWcdBBId3GiLFlyGbz-8" value="" style="rhombus;whiteSpace=wrap;html=1;" vertex="1" parent="1">
          <mxGeometry x="60" y="520" width="160" height="100" as="geometry" />
        </mxCell>
        <mxCell id="uKTWcdBBId3GiLFlyGbz-9" value="" style="rounded=0;whiteSpace=wrap;html=1;" vertex="1" parent="1">
          <mxGeometry x="80" y="720" width="120" height="60" as="geometry" />
        </mxCell>
        <mxCell id="uKTWcdBBId3GiLFlyGbz-10" value="" style="rhombus;whiteSpace=wrap;html=1;" vertex="1" parent="1">
          <mxGeometry x="350" y="690" width="160" height="100" as="geometry" />
        </mxCell>
        <mxCell id="uKTWcdBBId3GiLFlyGbz-11" value="" style="rounded=0;whiteSpace=wrap;html=1;" vertex="1" parent="1">
          <mxGeometry x="640" y="710" width="120" height="60" as="geometry" />
        </mxCell>
        <mxCell id="uKTWcdBBId3GiLFlyGbz-12" value="" style="endArrow=none;html=1;entryX=0.5;entryY=1;entryDx=0;entryDy=0;" edge="1" parent="1" source="uKTWcdBBId3GiLFlyGbz-5" target="uKTWcdBBId3GiLFlyGbz-2">
          <mxGeometry width="50" height="50" relative="1" as="geometry">
            <mxPoint x="390" y="350" as="sourcePoint" />
            <mxPoint x="440" y="300" as="targetPoint" />
          </mxGeometry>
        </mxCell>
        <mxCell id="uKTWcdBBId3GiLFlyGbz-13" value="" style="endArrow=none;html=1;entryX=0.5;entryY=1;entryDx=0;entryDy=0;" edge="1" parent="1">
          <mxGeometry width="50" height="50" relative="1" as="geometry">
            <mxPoint x="140" y="520" as="sourcePoint" />
            <mxPoint x="139.5" y="440" as="targetPoint" />
          </mxGeometry>
        </mxCell>
        <mxCell id="uKTWcdBBId3GiLFlyGbz-14" value="" style="endArrow=none;html=1;entryX=0.5;entryY=1;entryDx=0;entryDy=0;exitX=0.5;exitY=0;exitDx=0;exitDy=0;" edge="1" parent="1" source="uKTWcdBBId3GiLFlyGbz-7">
          <mxGeometry width="50" height="50" relative="1" as="geometry">
            <mxPoint x="139.5" y="400" as="sourcePoint" />
            <mxPoint x="139.5" y="300" as="targetPoint" />
          </mxGeometry>
        </mxCell>
        <mxCell id="uKTWcdBBId3GiLFlyGbz-15" value="" style="endArrow=none;html=1;entryX=0.5;entryY=1;entryDx=0;entryDy=0;exitX=0.5;exitY=0;exitDx=0;exitDy=0;" edge="1" parent="1" source="uKTWcdBBId3GiLFlyGbz-9">
          <mxGeometry width="50" height="50" relative="1" as="geometry">
            <mxPoint x="140" y="700" as="sourcePoint" />
            <mxPoint x="139.5" y="620" as="targetPoint" />
          </mxGeometry>
        </mxCell>
        <mxCell id="uKTWcdBBId3GiLFlyGbz-16" value="" style="endArrow=none;html=1;entryX=0.5;entryY=1;entryDx=0;entryDy=0;exitX=0.5;exitY=0;exitDx=0;exitDy=0;" edge="1" parent="1" target="uKTWcdBBId3GiLFlyGbz-6">
          <mxGeometry width="50" height="50" relative="1" as="geometry">
            <mxPoint x="700" y="710" as="sourcePoint" />
            <mxPoint x="699.5" y="610" as="targetPoint" />
          </mxGeometry>
        </mxCell>
        <mxCell id="uKTWcdBBId3GiLFlyGbz-17" value="" style="endArrow=none;html=1;exitX=0.5;exitY=0;exitDx=0;exitDy=0;" edge="1" parent="1">
          <mxGeometry width="50" height="50" relative="1" as="geometry">
            <mxPoint x="699.5" y="350" as="sourcePoint" />
            <mxPoint x="700" y="100" as="targetPoint" />
          </mxGeometry>
        </mxCell>
        <mxCell id="uKTWcdBBId3GiLFlyGbz-18" value="" style="endArrow=none;html=1;entryX=0;entryY=0.5;entryDx=0;entryDy=0;exitX=1;exitY=0.5;exitDx=0;exitDy=0;" edge="1" parent="1" source="uKTWcdBBId3GiLFlyGbz-2" target="uKTWcdBBId3GiLFlyGbz-3">
          <mxGeometry width="50" height="50" relative="1" as="geometry">
            <mxPoint x="210" y="70" as="sourcePoint" />
            <mxPoint x="150" y="110" as="targetPoint" />
          </mxGeometry>
        </mxCell>
        <mxCell id="uKTWcdBBId3GiLFlyGbz-19" value="" style="endArrow=none;html=1;entryX=0;entryY=0.5;entryDx=0;entryDy=0;" edge="1" parent="1" target="uKTWcdBBId3GiLFlyGbz-4">
          <mxGeometry width="50" height="50" relative="1" as="geometry">
            <mxPoint x="510" y="69.5" as="sourcePoint" />
            <mxPoint x="630" y="70" as="targetPoint" />
          </mxGeometry>
        </mxCell>
        <mxCell id="uKTWcdBBId3GiLFlyGbz-20" value="" style="endArrow=none;html=1;entryX=0;entryY=0.5;entryDx=0;entryDy=0;exitX=1;exitY=0.5;exitDx=0;exitDy=0;" edge="1" parent="1">
          <mxGeometry width="50" height="50" relative="1" as="geometry">
            <mxPoint x="200" y="739.5" as="sourcePoint" />
            <mxPoint x="350" y="739.5" as="targetPoint" />
          </mxGeometry>
        </mxCell>
        <mxCell id="uKTWcdBBId3GiLFlyGbz-21" value="" style="endArrow=none;html=1;exitX=1;exitY=0.5;exitDx=0;exitDy=0;" edge="1" parent="1">
          <mxGeometry width="50" height="50" relative="1" as="geometry">
            <mxPoint x="510" y="739.5" as="sourcePoint" />
            <mxPoint x="640" y="740" as="targetPoint" />
          </mxGeometry>
        </mxCell>
        <mxCell id="uKTWcdBBId3GiLFlyGbz-22" value="User" style="text;html=1;strokeColor=none;fillColor=none;align=center;verticalAlign=middle;whiteSpace=wrap;rounded=0;fontStyle=1;fontSize=18;" vertex="1" parent="1">
          <mxGeometry x="85" y="45" width="110" height="50" as="geometry" />
        </mxCell>
        <mxCell id="uKTWcdBBId3GiLFlyGbz-23" value="Memiliki" style="text;html=1;strokeColor=none;fillColor=none;align=center;verticalAlign=middle;whiteSpace=wrap;rounded=0;fontSize=18;fontStyle=1" vertex="1" parent="1">
          <mxGeometry x="640" y="375" width="110" height="50" as="geometry" />
        </mxCell>
        <mxCell id="uKTWcdBBId3GiLFlyGbz-24" value="Pembayaran" style="text;html=1;strokeColor=none;fillColor=none;align=center;verticalAlign=middle;whiteSpace=wrap;rounded=0;fontStyle=1;fontSize=18;" vertex="1" parent="1">
          <mxGeometry x="85" y="385" width="110" height="50" as="geometry" />
        </mxCell>
        <mxCell id="uKTWcdBBId3GiLFlyGbz-25" value="Melakukan" style="text;html=1;strokeColor=none;fillColor=none;align=center;verticalAlign=middle;whiteSpace=wrap;rounded=0;fontSize=18;fontStyle=1" vertex="1" parent="1">
          <mxGeometry x="90" y="225" width="110" height="50" as="geometry" />
        </mxCell>
        <mxCell id="uKTWcdBBId3GiLFlyGbz-26" value="Tiket" style="text;html=1;strokeColor=none;fillColor=none;align=center;verticalAlign=middle;whiteSpace=wrap;rounded=0;fontSize=18;fontStyle=1" vertex="1" parent="1">
          <mxGeometry x="645" y="45" width="110" height="50" as="geometry" />
        </mxCell>
        <mxCell id="uKTWcdBBId3GiLFlyGbz-27" value="Memesan" style="text;html=1;strokeColor=none;fillColor=none;align=center;verticalAlign=middle;whiteSpace=wrap;rounded=0;fontSize=18;fontStyle=1" vertex="1" parent="1">
          <mxGeometry x="375" y="45" width="110" height="50" as="geometry" />
        </mxCell>
        <mxCell id="uKTWcdBBId3GiLFlyGbz-28" value="Pertandingan" style="text;html=1;strokeColor=none;fillColor=none;align=center;verticalAlign=middle;whiteSpace=wrap;rounded=0;fontSize=18;fontStyle=1" vertex="1" parent="1">
          <mxGeometry x="645" y="715" width="110" height="50" as="geometry" />
        </mxCell>
        <mxCell id="uKTWcdBBId3GiLFlyGbz-29" value="Mengelola" style="text;html=1;strokeColor=none;fillColor=none;align=center;verticalAlign=middle;whiteSpace=wrap;rounded=0;fontSize=18;fontStyle=1" vertex="1" parent="1">
          <mxGeometry x="375" y="720" width="110" height="50" as="geometry" />
        </mxCell>
        <mxCell id="uKTWcdBBId3GiLFlyGbz-30" value="Admin" style="text;html=1;strokeColor=none;fillColor=none;align=center;verticalAlign=middle;whiteSpace=wrap;rounded=0;fontSize=18;fontStyle=1" vertex="1" parent="1">
          <mxGeometry x="85" y="725" width="110" height="50" as="geometry" />
        </mxCell>
        <mxCell id="uKTWcdBBId3GiLFlyGbz-31" value="Verifikasi" style="text;html=1;strokeColor=none;fillColor=none;align=center;verticalAlign=middle;whiteSpace=wrap;rounded=0;fontSize=18;fontStyle=1" vertex="1" parent="1">
          <mxGeometry x="85" y="545" width="110" height="50" as="geometry" />
        </mxCell>
      </root>
    </mxGraphModel>
  </diagram>
</mxfile>
